<svg id="_25_LDtk-simple.svg_50_LDtk-simple-1024.png_25_LDtk-simple-512.png" data-name="25% LDtk-simple.svg, 50% LDtk-simple-1024.png, 25% LDtk-simple-512.png" xmlns="http://www.w3.org/2000/svg" width="509.923" height="202.484" viewBox="0 0 2039.69 809.937">
  <defs>
    <style>
      .cls-1 {
        fill: #fc0;
        fill-rule: evenodd;
      }
    </style>
  </defs>
  <path id="LDtk" class="cls-1" d="M179.671,41.986H-3v757.9h500.65V659.34H179.671V41.986Zm644.287,757.9q98.361-.513,178.242-47.109,79.89-46.579,123.87-129.092,43.965-82.5,43.97-186.612V402.2q-0.525-103.065-45.54-186.091T999.342,87.533Q919.193,41.99,818.754,41.986H574.674v757.9H823.958Zm-5.2-616.834q80.663,0,122.82,55.7t42.155,165.53v32.794q0,110.361-42.155,166.311T820.836,659.34H757.344V183.051h61.41ZM1330.33,84.67v152H1226.25v28.109h104.08v403.8q0.51,73.469,27.06,107.6t87.96,34.128q41.625,0,58.8-6.247l-4.68-26.547q-32.79,4.685-55.68,4.685-45.81,0-65.32-28.654t-19.51-88.589V264.775h128.02V236.666H1358.96v-152h-28.63Zm672.91,715.215h36.43L1764.89,476.633l258.65-239.967h-40.07L1727.42,473.509l-66.1,62.465V0.343h-28.1V799.885h28.1v-233.2l81.71-70.272,1.04-1.041Z" transform="translate(0 -0.344)"/>
</svg>
