<svg id="LDtk-withSub-2048.png_50_LDtk-withSub-1024.png_25_LDtk-withSub-512.png_12.5_LDtk-withSub-256.png_25_LDtk-withSub.svg" data-name="LDtk-withSub-2048.png, 50% LDtk-withSub-1024.png, 25% LDtk-withSub-512.png, 12.5% LDtk-withSub-256.png, 25% LDtk-withSub.svg" xmlns="http://www.w3.org/2000/svg" width="511.515" height="302.664" viewBox="0 0 2046.06 1210.656">
  <defs>
    <style>
      .cls-1, .cls-3 {
        fill: #fc0;
      }

      .cls-2 {
        fill: #1e2229;
      }

      .cls-2, .cls-3 {
        fill-rule: evenodd;
      }
    </style>
  </defs>
  <rect id="box" class="cls-1" y="873.062" width="2046.06" height="338.064" rx="18.318" ry="18.318"/>
  <path id="sub" class="cls-2" d="M93.931,972.8H81.72V1116.21h83.017v-10.24H93.931V972.8ZM264.2,1099.37l-7.386-5.62a36.887,36.887,0,0,1-13.147,11.03,38.363,38.363,0,0,1-16.692,3.45,33.055,33.055,0,0,1-26.146-12.06q-10.391-12.075-10.389-30.19v-2.27h76.025v-6.6q0-22.95-11.374-36.2t-30.775-13.25a40.9,40.9,0,0,0-23.043,7.05,47.339,47.339,0,0,0-16.594,19.35,62.737,62.737,0,0,0-5.958,27.68v4.24a58.2,58.2,0,0,0,6.106,26.84,45.626,45.626,0,0,0,17.086,18.66,46.2,46.2,0,0,0,24.57,6.7q24.717,0,37.717-18.81h0Zm-18.218-72.01q8.271,9.66,8.764,25.02v1.28H190.834q1.968-16.44,11.079-26.2a29.455,29.455,0,0,1,22.4-9.75Q237.708,1017.71,245.982,1027.36Zm42.641-17.73H276.51l39.982,106.58h9.552l39.786-106.58H353.717l-32.4,90.33Zm174.208,89.74-7.386-5.62a36.887,36.887,0,0,1-13.147,11.03,38.363,38.363,0,0,1-16.692,3.45,33.054,33.054,0,0,1-26.146-12.06q-10.39-12.075-10.389-30.19v-2.27H465.1v-6.6q0-22.95-11.374-36.2t-30.775-13.25a40.9,40.9,0,0,0-23.044,7.05,47.344,47.344,0,0,0-16.593,19.35,62.737,62.737,0,0,0-5.958,27.68v4.24a58.214,58.214,0,0,0,6.105,26.84,45.639,45.639,0,0,0,17.086,18.66,46.209,46.209,0,0,0,24.571,6.7q24.717,0,37.717-18.81h0Zm-18.219-72.01q8.272,9.66,8.765,25.02v1.28H389.465q1.968-16.44,11.078-26.2a29.458,29.458,0,0,1,22.4-9.75Q436.339,1017.71,444.612,1027.36Zm56.625-62.444H489.42V1116.21h11.817V964.916Zm123,151.294q18.317,0,32.448-8.08a55.317,55.317,0,0,0,21.912-22.95q7.778-14.865,7.779-34.08v-13.2q0-19.11-7.828-34.08a55.527,55.527,0,0,0-21.813-23,62.358,62.358,0,0,0-31.612-8.027H585.042V1116.21h39.195Zm1.083-133.171q22.059,0.1,35.551,14.985t13.491,39.626v12.62q0,25.635-13.688,40.66t-36.339,15.04h-27.18V983.039H625.32Zm168,116.331-7.386-5.62a36.887,36.887,0,0,1-13.147,11.03,38.363,38.363,0,0,1-16.692,3.45,33.054,33.054,0,0,1-26.146-12.06q-10.39-12.075-10.389-30.19v-2.27h76.025v-6.6q0-22.95-11.374-36.2t-30.775-13.25a40.9,40.9,0,0,0-23.044,7.05,47.344,47.344,0,0,0-16.593,19.35,62.737,62.737,0,0,0-5.958,27.68v4.24a58.2,58.2,0,0,0,6.106,26.84,45.63,45.63,0,0,0,17.085,18.66,46.209,46.209,0,0,0,24.571,6.7q24.717,0,37.717-18.81h0Zm-18.219-72.01q8.273,9.66,8.765,25.02v1.28H719.958q1.968-16.44,11.078-26.2a29.458,29.458,0,0,1,22.4-9.75Q766.832,1017.71,775.105,1027.36Zm99.661,75.45q-7.586,5.43-19.893,5.42-13.2,0-21.222-5.76a20.489,20.489,0,0,1-8.715-16.11H813.118q0,13.8,11.571,22.81t30.184,9.01q17.527,0,28.411-8.08a27.352,27.352,0,0,0,7.14-35.65q-3.744-5.82-11.473-9.95t-23.241-7.78q-15.51-3.645-21.37-8.03t-5.859-12.36q0-8.28,7.041-13.45t18.662-5.17q11.913,0,19.744,6.21t7.829,15.56h11.818a28.3,28.3,0,0,0-10.784-23q-10.782-8.82-28.607-8.82-16.447,0-26.983,8.23t-10.538,20.83a23.7,23.7,0,0,0,3.792,13.59q3.789,5.625,11.62,9.51t22.01,6.89q14.181,3.015,21.222,8.33a16.786,16.786,0,0,1,7.041,14.08Q882.348,1097.4,874.766,1102.81Zm59.087-93.18H922.035v106.58h11.818V1009.63Zm-11.719-25.2a7.806,7.806,0,0,0,5.908,2.252A7.976,7.976,0,0,0,934,984.432a7.638,7.638,0,0,0,2.216-5.579A7.806,7.806,0,0,0,934,973.225a7.889,7.889,0,0,0-5.958-2.3,7.723,7.723,0,0,0-5.908,2.3,7.9,7.9,0,0,0-2.167,5.628A7.728,7.728,0,0,0,922.134,984.432Zm39,79.078q0,25.125,11.227,39.9,11.226,14.76,29.742,14.77,21.66,0,32.99-15.76v13.4q-0.3,15.45-8.57,24.18-8.265,8.715-23.04,8.71-17.24,0-29.744-15.36l-6.6,7.09a41.217,41.217,0,0,0,15.9,13.25,47.479,47.479,0,0,0,21.218,4.97q19.695,0,31.22-12.01,11.52-12.03,11.52-32.61V1009.63h-11.03l-0.59,15.37q-11.325-17.34-33.09-17.34-19,0-30.08,14.63t-11.079,39.65v1.57Zm20.188-33.93q8.273-11.67,23.141-11.67,10.935,0,18.71,5.37t11.92,15.61v49.54q-9.06,19.515-30.83,19.51-14.865,0-23.04-11.77t-8.173-32.16Q973.047,1041.255,981.319,1029.58Zm96.411-19.95v106.58h11.72v-72.99a40.073,40.073,0,0,1,12.46-18.47,29.805,29.805,0,0,1,19.35-6.84q13.1,0,19.05,6.99t6.06,21.28v70.03h11.72v-69.93q-0.1-19.3-8.47-28.96t-25.51-9.66a38.854,38.854,0,0,0-19.79,5.18,42.145,42.145,0,0,0-14.97,15.02l-0.39-18.23h-11.23Zm189.77,89.74-7.39-5.62a36.87,36.87,0,0,1-13.15,11.03,38.348,38.348,0,0,1-16.69,3.45,33.041,33.041,0,0,1-26.14-12.06q-10.395-12.075-10.39-30.19v-2.27h76.02v-6.6q0-22.95-11.37-36.2-11.385-13.245-30.78-13.25a40.891,40.891,0,0,0-23.04,7.05,47.33,47.33,0,0,0-16.59,19.35,62.641,62.641,0,0,0-5.96,27.68v4.24a58.224,58.224,0,0,0,6.1,26.84,45.655,45.655,0,0,0,17.09,18.66,46.205,46.205,0,0,0,24.57,6.7q24.72,0,37.72-18.81h0Zm-18.22-72.01q8.265,9.66,8.76,25.02v1.28h-63.91q1.965-16.44,11.08-26.2a29.451,29.451,0,0,1,22.4-9.75Q1241.005,1017.71,1249.28,1027.36Zm92.96-18.42a19.439,19.439,0,0,0-7.78-1.28q-20.67,0-30.03,18.92l-0.2-16.95h-11.52v106.58h11.72v-73.18q3.24-11.73,10.88-17.88,7.635-6.165,18.66-6.16a44.077,44.077,0,0,1,7.98.69ZM1505.72,972.8h-110.3v10.243h49.04V1116.21h12.12V983.039h49.14V972.8Zm4.13,90.914q0,24.63,13.25,39.55t34.42,14.92a45.977,45.977,0,0,0,24.71-6.7,44.467,44.467,0,0,0,16.79-19.06,63.134,63.134,0,0,0,5.96-27.82v-2.47q0-24.615-13.19-39.54t-34.47-14.93a44.767,44.767,0,0,0-41.51,26.01,62.748,62.748,0,0,0-5.96,27.68v2.36Zm11.82-1.28q0-20,9.95-32.36a31.473,31.473,0,0,1,25.7-12.36,32.47,32.47,0,0,1,18.71,5.57,36.352,36.352,0,0,1,12.7,15.71,54.191,54.191,0,0,1,4.53,22.36v2.26q0,20.1-9.89,32.36t-25.85,12.26q-16.065,0-25.95-12.26t-9.9-31.37v-2.17Zm101.14,1.28q0,24.63,13.24,39.55t34.42,14.92a45.988,45.988,0,0,0,24.72-6.7,44.467,44.467,0,0,0,16.79-19.06,63.273,63.273,0,0,0,5.96-27.82v-2.47q0-24.615-13.2-39.54t-34.47-14.93a44.767,44.767,0,0,0-41.51,26.01,62.744,62.744,0,0,0-5.95,27.68v2.36Zm11.81-1.28q0-20,9.95-32.36a31.486,31.486,0,0,1,25.7-12.36,32.447,32.447,0,0,1,18.71,5.57,36.371,36.371,0,0,1,12.71,15.71,54.191,54.191,0,0,1,4.53,22.36v2.26q0,20.1-9.9,32.36t-25.85,12.26q-16.05,0-25.95-12.26t-9.9-31.37v-2.17Zm120.84-97.514h-11.82V1116.21h11.82V964.916ZM1855.9,1116.21h14.09l-49.14-61.66,45.2-44.92h-14.87l-40.77,40.09-11.13,12.02V964.916h-11.82V1116.21h11.82v-40.68l13.49-13Zm43.53-106.58h-11.82v106.58h11.82V1009.63Zm-11.72-25.2a7.831,7.831,0,0,0,5.91,2.252,7.977,7.977,0,0,0,5.96-2.252,7.63,7.63,0,0,0,2.22-5.579,7.8,7.8,0,0,0-2.22-5.628,7.891,7.891,0,0,0-5.96-2.3,7.747,7.747,0,0,0-5.91,2.3,7.914,7.914,0,0,0-2.16,5.628A7.743,7.743,0,0,0,1887.71,984.432Zm50.23-2.082v27.28h-19.6v9.66h19.6v71.11q0,13.695,5.51,20.74t17.63,7.04q7.98,0,12.6-1.66l-0.49-9.57a72.928,72.928,0,0,1-9.55.99q-7.485,0-10.68-4.34t-3.21-13.22v-71.09h22.06v-9.66h-22.06V982.35h-11.81Z" transform="translate(0 -0.344)"/>
  <path id="LDtk" class="cls-3" d="M179.671,41.986H-3v757.9h500.65V659.34H179.671V41.986Zm644.287,757.9q98.361-.513,178.242-47.109,79.89-46.579,123.87-129.092,43.965-82.5,43.97-186.612V402.2q-0.525-103.065-45.54-186.091T999.342,87.533Q919.193,41.99,818.754,41.986H574.674v757.9H823.958Zm-5.2-616.834q80.663,0,122.82,55.7t42.155,165.53v32.794q0,110.361-42.155,166.311T820.836,659.34H757.344V183.051h61.41ZM1330.33,84.67v152H1226.25v28.109h104.08v403.8q0.51,73.469,27.06,107.6t87.96,34.128q41.625,0,58.8-6.247l-4.68-26.547q-32.79,4.685-55.68,4.685-45.81,0-65.32-28.654t-19.51-88.589V264.775h128.02V236.666H1358.96v-152h-28.63Zm672.91,715.215h36.43L1764.89,476.633l258.65-239.967h-40.07L1727.42,473.509l-66.1,62.465V0.343h-28.1V799.885h28.1v-233.2l81.71-70.272,1.04-1.041Z" transform="translate(0 -0.344)"/>
</svg>
