<svg id="LDtk-2048.png_50_LDtk-1024.png_25_LDtk-512.png_25_LDtk.svg" data-name="LDtk-2048.png, 50% LDtk-1024.png, 25% LDtk-512.png, 25% LDtk.svg" xmlns="http://www.w3.org/2000/svg" width="511.515" height="275.586" viewBox="0 0 2046.06 1102.344">
  <defs>
    <style>
      .cls-1 {
        fill: #fc0;
      }

      .cls-1, .cls-2 {
        fill-rule: evenodd;
      }

      .cls-2 {
        fill: #1e2229;
      }
    </style>
  </defs>
  <path id="box" class="cls-1" d="M18.318,765.412H2027.74a18.316,18.316,0,0,1,18.31,18.319V1085.14a18.315,18.315,0,0,1-18.31,18.32H18.318A18.318,18.318,0,0,1,0,1085.14V783.731A18.319,18.319,0,0,1,18.318,765.412Z" transform="translate(0 -0.656)"/>
  <g id="text_shapes" data-name="text shapes">
    <path id="sub_shape" data-name="sub shape" class="cls-2" d="M93.931,864.8H81.72V1008.21h83.017V997.966H93.931V864.8ZM264.2,991.367l-7.386-5.615a37,37,0,0,1-13.147,11.032,38.377,38.377,0,0,1-16.692,3.446,33.045,33.045,0,0,1-26.146-12.065q-10.391-12.064-10.389-30.19V955.71h76.025v-6.6q0-22.95-11.374-36.2t-30.774-13.248a40.936,40.936,0,0,0-23.044,7.043,47.4,47.4,0,0,0-16.594,19.355,62.712,62.712,0,0,0-5.958,27.678v4.235a58.179,58.179,0,0,0,6.106,26.841,45.606,45.606,0,0,0,17.086,18.664,46.2,46.2,0,0,0,24.57,6.7q24.717,0,37.717-18.813h0Zm-18.218-72q8.271,9.654,8.764,25.019v1.28H190.834q1.968-16.449,11.079-26.2a29.453,29.453,0,0,1,22.4-9.751Q237.707,909.711,245.982,919.364Zm42.641-17.73H276.51l39.982,106.576h9.553L365.83,901.634H353.717l-32.4,90.324Zm174.208,89.733-7.386-5.615A37,37,0,0,1,442.3,996.784a38.377,38.377,0,0,1-16.692,3.446,33.043,33.043,0,0,1-26.146-12.065q-10.39-12.064-10.389-30.19V955.71H465.1v-6.6q0-22.95-11.374-36.2t-30.775-13.248a40.94,40.94,0,0,0-23.044,7.043,47.4,47.4,0,0,0-16.593,19.355,62.712,62.712,0,0,0-5.958,27.678v4.235a58.191,58.191,0,0,0,6.105,26.841,45.613,45.613,0,0,0,17.086,18.664,46.209,46.209,0,0,0,24.571,6.7q24.717,0,37.717-18.813h0Zm-18.219-72q8.272,9.654,8.765,25.019v1.28H389.465q1.968-16.449,11.078-26.2a29.456,29.456,0,0,1,22.4-9.751Q436.339,909.711,444.612,919.364Zm56.625-62.448H489.42V1008.21h11.817V856.916Zm123,151.294q18.317,0,32.448-8.08A55.339,55.339,0,0,0,678.6,977.183q7.778-14.872,7.78-34.081V929.9q0-19.107-7.829-34.08a55.517,55.517,0,0,0-21.813-23,62.358,62.358,0,0,0-31.612-8.027H585.042V1008.21h39.195Zm1.083-133.171q22.059,0.1,35.551,14.985t13.491,39.627V942.27q0,25.629-13.688,40.663t-36.339,15.033h-27.18V875.039H625.32Zm168,116.328-7.386-5.615a37,37,0,0,1-13.147,11.032,38.377,38.377,0,0,1-16.692,3.446,33.043,33.043,0,0,1-26.146-12.065q-10.39-12.064-10.389-30.19V955.71h76.025v-6.6q0-22.95-11.374-36.2T753.44,899.664a40.94,40.94,0,0,0-23.044,7.043A47.4,47.4,0,0,0,713.8,926.062a62.712,62.712,0,0,0-5.958,27.678v4.235a58.179,58.179,0,0,0,6.106,26.841,45.61,45.61,0,0,0,17.085,18.664,46.209,46.209,0,0,0,24.571,6.7q24.717,0,37.717-18.813h0Zm-18.218-72q8.271,9.654,8.764,25.019v1.28H719.958q1.968-16.449,11.078-26.2a29.456,29.456,0,0,1,22.4-9.751Q766.832,909.711,775.106,919.364Zm99.66,75.45q-7.586,5.418-19.893,5.416-13.2,0-21.222-5.761a20.487,20.487,0,0,1-8.715-16.1H813.118q0,13.791,11.571,22.8t30.184,9.01q17.527,0,28.411-8.08a27.357,27.357,0,0,0,7.14-35.654q-3.744-5.81-11.473-9.948t-23.241-7.781q-15.51-3.644-21.37-8.028t-5.859-12.362q0-8.274,7.041-13.445t18.662-5.171q11.913,0,19.744,6.205t7.83,15.563h11.817a28.3,28.3,0,0,0-10.783-23q-10.784-8.814-28.608-8.816-16.447,0-26.983,8.225t-10.538,20.832a23.715,23.715,0,0,0,3.792,13.593q3.789,5.615,11.62,9.5t22.01,6.9q14.181,3.006,21.222,8.323a16.8,16.8,0,0,1,7.041,14.086Q882.348,989.4,874.766,994.814Zm59.087-93.18H922.035V1008.21h11.818V901.634Zm-11.719-25.2a7.808,7.808,0,0,0,5.908,2.252A7.976,7.976,0,0,0,934,876.432a7.637,7.637,0,0,0,2.216-5.579A7.806,7.806,0,0,0,934,865.225a7.889,7.889,0,0,0-5.958-2.3,7.724,7.724,0,0,0-5.908,2.3,7.9,7.9,0,0,0-2.167,5.628A7.726,7.726,0,0,0,922.134,876.432Zm39,79.081q0,25.117,11.227,39.892t29.742,14.775q21.66,0,32.99-15.76v13.4q-0.3,15.45-8.57,24.18-8.265,8.715-23.04,8.71-17.24,0-29.744-15.36l-6.6,7.09a41.217,41.217,0,0,0,15.9,13.25,47.479,47.479,0,0,0,21.218,4.97q19.695,0,31.22-12.01,11.52-12.03,11.52-32.61V901.634h-11.03L1035.38,917q-11.325-17.336-33.09-17.336-19,0-30.08,14.627t-11.079,39.646v1.576Zm20.188-33.933q8.273-11.672,23.141-11.672,10.935,0,18.71,5.368t11.92,15.612v49.545q-9.06,19.5-30.83,19.5-14.865,0-23.039-11.771t-8.174-32.159Q973.047,933.253,981.319,921.58Zm96.411-19.946V1008.21h11.72V935.222a40.057,40.057,0,0,1,12.46-18.468,29.789,29.789,0,0,1,19.35-6.846q13.1,0,19.05,6.993t6.06,21.276v70.033h11.72V938.276q-0.1-19.3-8.47-28.959t-25.51-9.653a38.877,38.877,0,0,0-19.79,5.171,42.252,42.252,0,0,0-14.97,15.021l-0.39-18.222h-11.23Zm189.77,89.733-7.39-5.615a36.98,36.98,0,0,1-13.15,11.032,38.362,38.362,0,0,1-16.69,3.446,33.03,33.03,0,0,1-26.14-12.065q-10.395-12.064-10.39-30.19V955.71h76.02v-6.6q0-22.95-11.37-36.2-11.385-13.246-30.78-13.248a40.93,40.93,0,0,0-23.04,7.043,47.39,47.39,0,0,0-16.59,19.355,62.617,62.617,0,0,0-5.96,27.678v4.235a58.2,58.2,0,0,0,6.1,26.841,45.629,45.629,0,0,0,17.09,18.664,46.205,46.205,0,0,0,24.57,6.7q24.72,0,37.72-18.813h0Zm-18.22-72q8.265,9.654,8.76,25.019v1.28h-63.91q1.965-16.449,11.08-26.2a29.449,29.449,0,0,1,22.4-9.751Q1241.005,909.711,1249.28,919.364Zm92.96-18.419a19.385,19.385,0,0,0-7.78-1.281q-20.67,0-30.03,18.912l-0.2-16.942h-11.52V1008.21h11.72V935.025q3.24-11.72,10.88-17.877t18.66-6.156a44.17,44.17,0,0,1,7.98.689ZM1505.72,864.8h-110.3v10.243h49.04V1008.21h12.12V875.039h49.14V864.8Zm4.13,90.914q0,24.625,13.25,39.547t34.42,14.923a45.977,45.977,0,0,0,24.71-6.7,44.467,44.467,0,0,0,16.79-19.058,63.156,63.156,0,0,0,5.96-27.825v-2.463q0-24.622-13.19-39.547t-34.47-14.923a44.758,44.758,0,0,0-41.51,26,62.755,62.755,0,0,0-5.96,27.678v2.364Zm11.82-1.28q0-19.995,9.95-32.357a31.475,31.475,0,0,1,25.7-12.362,32.473,32.473,0,0,1,18.71,5.565,36.4,36.4,0,0,1,12.7,15.711,54.226,54.226,0,0,1,4.53,22.359v2.266q0,20.092-9.89,32.356t-25.85,12.262q-16.065,0-25.95-12.262t-9.9-31.371V954.43Zm101.14,1.28q0,24.625,13.24,39.547t34.42,14.923a45.988,45.988,0,0,0,24.72-6.7,44.467,44.467,0,0,0,16.79-19.058,63.3,63.3,0,0,0,5.96-27.825v-2.463q0-24.622-13.2-39.547t-34.47-14.923a44.758,44.758,0,0,0-41.51,26,62.751,62.751,0,0,0-5.95,27.678v2.364Zm11.81-1.28q0-19.995,9.95-32.357a31.488,31.488,0,0,1,25.7-12.362,32.451,32.451,0,0,1,18.71,5.565,36.421,36.421,0,0,1,12.71,15.711,54.226,54.226,0,0,1,4.53,22.359v2.266q0,20.092-9.9,32.356t-25.85,12.262q-16.05,0-25.95-12.262t-9.9-31.371V954.43Zm120.84-97.514h-11.82V1008.21h11.82V856.916ZM1855.9,1008.21h14.09l-49.14-61.66,45.2-44.916h-14.87l-40.77,40.089-11.13,12.017V856.916h-11.82V1008.21h11.82V967.53l13.49-13Zm43.53-106.576h-11.82V1008.21h11.82V901.634Zm-11.72-25.2a7.831,7.831,0,0,0,5.91,2.252,7.977,7.977,0,0,0,5.96-2.252,7.628,7.628,0,0,0,2.22-5.579,7.8,7.8,0,0,0-2.22-5.628,7.891,7.891,0,0,0-5.96-2.3,7.747,7.747,0,0,0-5.91,2.3,7.914,7.914,0,0,0-2.16,5.628A7.741,7.741,0,0,0,1887.71,876.432Zm50.23-2.082v27.284h-19.6v9.653h19.6V982.4q0,13.692,5.51,20.737t17.63,7.04q7.98,0,12.6-1.66l-0.49-9.569a73.227,73.227,0,0,1-9.55.985q-7.485,0-10.68-4.339t-3.21-13.214v-71.1h22.06v-9.653h-22.06V874.35h-11.81Z" transform="translate(0 -0.656)"/>
    <path id="LDTk_shape" data-name="LDTk shape" class="cls-1" d="M161.046,36.977H1.7V698.108H438.427v-122.6H161.046V36.977ZM723.072,698.108q85.8-.447,155.487-41.094T986.606,544.4q38.361-71.964,38.364-162.786V351.2q-0.465-89.907-39.726-162.332T876.062,76.708Q806.146,36.98,718.532,36.977H505.616V698.108H723.072Zm-4.54-538.077q70.362,0,107.139,48.586t36.772,144.4v28.606q0,96.272-36.772,145.077T720.348,575.508H664.962V160.031h53.57ZM1587.45,36.977H1081.71V61.5h240.61V698.108h24.52V61.5h240.61V36.977Zm425.83,661.131h31.78l-239.7-281.98L2030.98,206.8h-34.95L1772.67,413.4l-57.66,54.488V0.651H1690.5V698.108h24.51V494.683l71.28-61.3,0.91-.908Z" transform="translate(0 -0.656)"/>
  </g>
</svg>
